<?xml version="1.0" encoding="utf-8"?>
<!-- Generator: Adobe Illustrator 21.1.0, SVG Export Plug-In . SVG Version: 6.00 Build 0)  -->
<svg version="1.1" id="Layer_1" xmlns="http://www.w3.org/2000/svg" xmlns:xlink="http://www.w3.org/1999/xlink" x="0px" y="0px"
	 viewBox="0 0 1000 125" style="enable-background:new 0 0 1000 125;" xml:space="preserve">
<polygon points="533.6,72.8 543.8,62.5 533.5,52.2 539.1,38.8 525.7,33.2 525.7,18.7 511.1,18.7 505.6,5.2 492.1,10.8 481.8,0.5 
	471.6,10.8 458.1,5.2 452.6,18.7 438,18.7 438,33.2 424.6,38.8 430.2,52.2 419.9,62.5 430.1,72.8 424.6,86.2 438,91.8 438,106.3 
	452.6,106.3 458.1,119.8 471.6,114.2 481.8,124.5 492.1,114.2 505.6,119.8 511.1,106.3 525.7,106.3 525.7,91.8 539.1,86.2 "/>
<polygon points="766.4,68.1 771.9,62.5 766.4,56.9 770.7,50.4 764.2,46 767.2,38.8 759.9,35.8 761.5,28.1 753.8,26.5 753.8,18.7 
	745.9,18.7 744.4,11 736.7,12.5 733.7,5.2 726.4,8.2 722,1.7 715.5,6.1 709.9,0.5 704.4,6.1 697.8,1.7 693.5,8.2 686.2,5.2 
	683.2,12.5 675.5,11 674,18.7 666.1,18.7 666.1,26.5 658.4,28.1 659.9,35.8 652.7,38.8 655.7,46 649.1,50.4 653.5,56.9 648,62.5 
	653.5,68.1 649.1,74.6 655.7,79 652.7,86.2 659.9,89.2 658.4,96.9 666.1,98.5 666.1,106.3 674,106.3 675.5,114 683.2,112.5 
	686.2,119.8 693.5,116.8 697.8,123.3 704.4,118.9 709.9,124.5 715.5,118.9 722,123.3 726.4,116.8 733.7,119.8 736.7,112.5 
	744.4,114 745.9,106.3 753.8,106.3 753.8,98.5 761.5,96.9 759.9,89.2 767.2,86.2 764.2,79 770.7,74.6 "/>
<polygon points="297.6,80.7 315.7,62.5 297.6,44.3 297.6,18.7 271.9,18.7 253.8,0.5 235.6,18.7 209.9,18.7 209.9,44.3 191.8,62.5 
	209.9,80.7 209.9,106.3 235.6,106.3 253.8,124.5 271.9,106.3 297.6,106.3 "/>
<rect y="18.7" width="87.7" height="87.7"/>
<path d="M938,124.5c34.2,0,62-27.8,62-62s-27.8-62-62-62c-34.2,0-62,27.8-62,62S903.8,124.5,938,124.5"/>
</svg>
