<?xml version="1.0" encoding="utf-8"?>
<!-- Generator: Adobe Illustrator 21.1.0, SVG Export Plug-In . SVG Version: 6.00 Build 0)  -->
<svg version="1.1" id="Layer_1" xmlns="http://www.w3.org/2000/svg" xmlns:xlink="http://www.w3.org/1999/xlink" x="0px" y="0px"
	 viewBox="0 0 123.9 125" style="enable-background:new 0 0 123.9 125;" xml:space="preserve">
	 <defs><style>.a{fill:#231f20;}.b{fill:#fff;}</style></defs>
<polygon class="a" points="118.4,68.1 123.9,62.5 118.4,56.9 122.7,50.4 116.2,46 119.2,38.8 111.9,35.8 113.5,28.1 105.8,26.5 105.8,18.7 
	97.9,18.7 96.4,11 88.7,12.5 85.7,5.2 78.4,8.2 74,1.7 67.5,6.1 61.9,0.5 56.4,6.1 49.8,1.7 45.5,8.2 38.2,5.2 35.2,12.5 27.5,11 
	26,18.7 18.1,18.7 18.1,26.5 10.4,28.1 11.9,35.8 4.7,38.8 7.7,46 1.1,50.4 5.5,56.9 0,62.5 5.5,68.1 1.1,74.6 7.7,79 4.7,86.2 
	11.9,89.2 10.4,96.9 18.1,98.5 18.1,106.3 26,106.3 27.5,114 35.2,112.5 38.2,119.8 45.5,116.8 49.8,123.3 56.4,118.9 61.9,124.5 
	67.5,118.9 74,123.3 78.4,116.8 85.7,119.8 88.7,112.5 96.4,114 97.9,106.3 105.8,106.3 105.8,98.5 113.5,96.9 111.9,89.2 
	119.2,86.2 116.2,79 122.7,74.6 "/>
</svg>
