<?xml version="1.0" encoding="utf-8"?>
<!-- Generator: Adobe Illustrator 21.1.0, SVG Export Plug-In . SVG Version: 6.00 Build 0)  -->
<svg version="1.1" id="Layer_1" xmlns="http://www.w3.org/2000/svg" xmlns:xlink="http://www.w3.org/1999/xlink" x="0px" y="0px"
	 viewBox="0 0 123.9 125" style="enable-background:new 0 0 123.9 125;" xml:space="preserve">
	 <defs><style>.a{fill:#231f20;}.b{fill:#fff;}</style></defs>
<polygon class="a" points="113.7,72.8 123.9,62.5 113.6,52.2 119.2,38.8 105.8,33.2 105.8,18.7 91.2,18.7 85.7,5.2 72.2,10.8 61.9,0.5 
	51.7,10.8 38.2,5.2 32.7,18.7 18.1,18.7 18.1,33.2 4.7,38.8 10.3,52.2 0,62.5 10.2,72.8 4.7,86.2 18.1,91.8 18.1,106.3 32.7,106.3 
	38.2,119.8 51.7,114.2 61.9,124.5 72.2,114.2 85.7,119.8 91.2,106.3 105.8,106.3 105.8,91.8 119.2,86.2 "/>
</svg>
