<svg xmlns="http://www.w3.org/2000/svg" viewBox="-2626 7819 17.503 15.912"><defs><style>.a{fill:#fff;fill-rule:evenodd;}</style></defs><path class="a" d="M719.5,280.912h-3.868v-5.594c0-1.464-.605-2.464-1.936-2.464a1.952,1.952,0,0,0-1.847,1.325,2.463,2.463,0,0,0-.083.883v5.849h-3.832s.049-9.908,0-10.809h3.832v1.7c.226-.742,1.451-1.8,3.405-1.8,2.424,0,4.329,1.555,4.329,4.9v6.01ZM704.06,268.75h-.025A1.886,1.886,0,0,1,702,266.877a2.081,2.081,0,1,1,2.06,1.874Zm-1.619,1.352h3.411v10.809h-3.411V270.1Z" transform="translate(-3328 7554)"/></svg>