<svg xmlns="http://www.w3.org/2000/svg" viewBox="-2751 7818 18 18.081"><defs><style>.a{fill:#fff;fill-rule:evenodd;}</style></defs><path class="a" d="M33.377,20.628A8.963,8.963,0,0,0,19.271,31.438L18,36.081l4.751-1.246a8.959,8.959,0,0,0,4.283,1.091h0a8.963,8.963,0,0,0,6.34-15.3Zm-6.34,13.785h0a7.439,7.439,0,0,1-3.791-1.038l-.272-.161-2.819.739L20.9,31.2l-.177-.282a7.45,7.45,0,1,1,6.31,3.49Zm2.556-6.306c-.205-.075-.355-.112-.5.112s-.578.728-.709.878-.261.168-.485.056a6.117,6.117,0,0,1-1.8-1.111,6.746,6.746,0,0,1-1.246-1.551c-.131-.224-.014-.345.1-.457s.224-.261.336-.392a1.527,1.527,0,0,0,.224-.374.412.412,0,0,0-.019-.392c-.056-.112-.5-1.214-.69-1.662s-.366-.377-.5-.384-.28-.008-.429-.008a.823.823,0,0,0-.6.28,2.511,2.511,0,0,0-.784,1.868,4.354,4.354,0,0,0,.914,2.316,9.981,9.981,0,0,0,3.826,3.38,12.884,12.884,0,0,0,1.277.472,3.072,3.072,0,0,0,1.411.089,2.306,2.306,0,0,0,1.512-1.064,1.871,1.871,0,0,0,.131-1.065c-.056-.093-.205-.149-.429-.261S29.8,28.181,29.593,28.107Z" transform="translate(-2769 7800)"/></svg>