<svg xmlns="http://www.w3.org/2000/svg" viewBox="-2669 7819 18.851 15.836"><defs><style>.a{fill:#fff;fill-rule:evenodd;}</style></defs><g transform="translate(-3904 6923)"><path class="a" d="M32.629,2.951a.059.059,0,0,0-.011-.009l-.006,0L26.925.117a.591.591,0,0,0-.12-.042.636.636,0,0,0-.156-.021.652.652,0,0,0-.552.3L22.823,5.632l4.109,6.626,5.715-9.217a.068.068,0,0,0-.017-.09" transform="translate(1221.165 895.946)"/><path class="a" d="M18.29,11.053v6.011l5.383,2.671L18.29,11.053" transform="translate(1223.895 889.322)"/><path class="a" d="M33.855,20.52l4.431,2.2c.577.286,1.044.086,1.044-.447V11.689l-5.475,8.83" transform="translate(1214.521 888.939)"/><path class="a" d="M6.479,3.076.925.32A.641.641,0,0,0,.642.246C.4.246.229.433.229.747v11.9a1.028,1.028,0,0,0,.522.838l4.892,2.428A.8.8,0,0,0,6,16.006c.3,0,.517-.233.517-.625V3.13a.061.061,0,0,0-.034-.054" transform="translate(1234.771 895.83)"/></g></svg>